<svg xmlns="http://www.w3.org/2000/svg" width="512" height="512" viewBox="0 0 512 512"><defs><linearGradient id="shieldGrad" x1="0%" x2="100%" y1="0%" y2="100%"><stop offset="0%" stop-color="#3B82F6"/><stop offset="50%" stop-color="#2563EB"/><stop offset="100%" stop-color="#1D4ED8"/></linearGradient><linearGradient id="shieldRightShade" x1="50%" x2="100%" y1="0%" y2="100%"><stop offset="0%" stop-color="#1E40AF" stop-opacity="0"/><stop offset="100%" stop-color="#1E3A8A" stop-opacity=".35"/></linearGradient><linearGradient id="arrowGrad" x1="0%" x2="100%" y1="0%" y2="100%"><stop offset="0%" stop-color="#34D399"/><stop offset="50%" stop-color="#10B981"/><stop offset="100%" stop-color="#059669"/></linearGradient><filter id="dropShadow" width="130%" height="130%" x="-10%" y="-10%"><feDropShadow dx="0" dy="8" flood-color="#1E293B" flood-opacity=".18" stdDeviation="12"/></filter></defs><g filter="url(#dropShadow)"><path fill="url(#shieldGrad)" d="M 256 50 C 340 50 410 70 410 70 C 410 240 370 380 256 460 C 142 380 102 240 102 70 C 102 70 172 50 256 50 Z"/><path fill="url(#shieldRightShade)" d="M 256 50 C 340 50 410 70 410 70 C 410 240 370 380 256 460 L 256 50 Z"/><path fill="none" stroke="#60A5FA" stroke-width="4" d="M 256 68 C 330 68 392 86 392 86 C 392 235 358 358 256 432 C 154 358 120 235 120 86 C 120 86 182 68 256 68 Z" opacity=".4"/><text x="256" y="342" fill="#FFF" font-family="'Inter', 'Space Grotesk', system-ui, sans-serif" font-size="250" font-weight="900" letter-spacing="-4" text-anchor="middle">B</text><path fill="none" stroke="#FFF" stroke-linecap="round" stroke-width="36" d="M 330 220 C 370 180 430 110 370 65 C 325 30 280 60 275 80"/><path fill="#FFF" stroke="#FFF" stroke-linejoin="round" stroke-width="12" d="M 320 235 L 390 225 L 355 160 Z"/><path fill="none" stroke="url(#arrowGrad)" stroke-linecap="round" stroke-width="24" d="M 330 220 C 370 180 430 110 370 65 C 325 30 280 60 275 80"/><path fill="url(#arrowGrad)" stroke="url(#arrowGrad)" stroke-linejoin="round" stroke-width="4" d="M 320 235 L 390 225 L 355 160 Z"/></g></svg>