<svg xmlns="http://www.w3.org/2000/svg" xmlns:xlink="http://www.w3.org/1999/xlink" id="Group_4446" width="186.143" height="38.565" data-name="Group 4446" viewBox="0 0 186.143 38.565"><defs><clipPath id="clip-path"><rect id="Rectangle_1880" width="186.143" height="38.565" fill="none" data-name="Rectangle 1880"/></clipPath><clipPath id="clip-path-2"><rect id="Rectangle_2074" width="84.956" height="1.133" fill="none" data-name="Rectangle 2074"/></clipPath></defs><g id="Group_4443" data-name="Group 4443"><g id="Group_4442" clip-path="url(#clip-path)" data-name="Group 4442"><path id="Path_10515" fill="#3d3d3d" d="M13.625,11.716,9.72,14.146S3.645,6.248,0,4.165L42.575,0S10.5,4.513,7.984,6.075Z" data-name="Path 10515"/><path id="Path_10516" fill="#349574" d="M76.773,0S62.367,3.84,51.736,24.516L47.614,15.4l-3.471,2.6s6.509,11.846,6.917,18.036c0,0,8.9-25.759,25.713-36.043" data-name="Path 10516" transform="translate(-31.603)"/><path id="Path_10517" fill="#3d3d3d" d="M8.859,27.588s11-13.59,36.42-22.236A120.936,120.936,0,0,0,8.859,27.588" data-name="Path 10517" transform="translate(-6.342 -3.832)"/><path id="Path_10518" fill="#3d3d3d" d="M442.268,110.042a2.466,2.466,0,0,0-2.46-1.241,4.319,4.319,0,0,0-2.685.846,3.86,3.86,0,0,0-1.467,2.381,3.719,3.719,0,0,0-.1.835,2.145,2.145,0,0,0,.8,1.805,3.088,3.088,0,0,0,1.952.564,4.115,4.115,0,0,0,3.035-1.264l.541.395a5.031,5.031,0,0,1-3.7,1.557,3.443,3.443,0,0,1-2.775-1.049,2.689,2.689,0,0,1-.621-1.817,4.629,4.629,0,0,1,.113-.981,4.78,4.78,0,0,1,1.783-2.911,5.18,5.18,0,0,1,3.272-1.049,3.089,3.089,0,0,1,3.035,1.534Z" data-name="Path 10518" transform="translate(-311.275 -77.401)"/><path id="Path_10519" fill="#3d3d3d" d="M480.723,120.425a3.485,3.485,0,0,1-1.207.7,4.74,4.74,0,0,1-1.162.1,2.7,2.7,0,0,1-1.749-.53,1.953,1.953,0,0,1-.71-1.625,3.574,3.574,0,0,1,.079-.722,3.525,3.525,0,0,1,1.275-2.1,3.673,3.673,0,0,1,2.347-.784,2.744,2.744,0,0,1,1.76.53,1.985,1.985,0,0,1,.71,1.636,3.615,3.615,0,0,1-.079.722,3.529,3.529,0,0,1-1.264,2.076m.265-3.683a1.441,1.441,0,0,0-.683-.525,3.108,3.108,0,0,0-.857-.079,2.676,2.676,0,0,0-2.731,2.211,2.61,2.61,0,0,0-.068.564,1.49,1.49,0,0,0,.53,1.23,2.021,2.021,0,0,0,1.32.406,2.76,2.76,0,0,0,1.783-.6,2.708,2.708,0,0,0,.959-1.6,2.806,2.806,0,0,0,.068-.587,1.609,1.609,0,0,0-.321-1.021" data-name="Path 10519" transform="translate(-340.704 -82.661)"/><path id="Path_10520" fill="#3d3d3d" d="M516.227,121.454l.124-.6a3.162,3.162,0,0,1-2.087.711,2.569,2.569,0,0,1-1.4-.339,1.352,1.352,0,0,1-.632-1.218,2.647,2.647,0,0,1,.057-.519l.756-3.554h.745l-.756,3.543a1.926,1.926,0,0,0-.045.395q0,1.015,1.41,1.015a2.3,2.3,0,0,0,1.557-.525,2.575,2.575,0,0,0,.812-1.45l.632-2.979h.745l-1.173,5.517Z" data-name="Path 10520" transform="translate(-366.72 -83.002)"/><path id="Path_10521" fill="#3d3d3d" d="M547.091,118.867l-.474,2.234h-.745l1.173-5.517h.745l-.158.756a3.7,3.7,0,0,1,2.583-.88l-.135.677q-2.4,0-2.99,2.73" data-name="Path 10521" transform="translate(-390.803 -82.661)"/><path id="Path_10522" fill="#3d3d3d" d="M572.562,115.784l1.2-5.641h.745l-1.2,5.641Zm1.7-6.374q-.237,0-.293-.282l.181-.812a.522.522,0,0,1,.406-.282q.181,0,.339.248l-.18.88a.721.721,0,0,1-.451.248" data-name="Path 10522" transform="translate(-409.911 -77.343)"/><path id="Path_10523" fill="#3d3d3d" d="M593.236,118.631a2.585,2.585,0,0,0-.034.406q0,1.513,1.794,1.512a2.594,2.594,0,0,0,2.369-1.3h.767a3.484,3.484,0,0,1-3.294,1.974,2.716,2.716,0,0,1-1.7-.474,1.839,1.839,0,0,1-.677-1.557,3.812,3.812,0,0,1,.1-.835,3.568,3.568,0,0,1,3.554-2.9,2.857,2.857,0,0,1,1.715.474,1.806,1.806,0,0,1,.734,1.546,3.187,3.187,0,0,1-.079.677l-.09.462Zm2.742-2.493a2.705,2.705,0,0,0-1.6.48,2.677,2.677,0,0,0-.987,1.337h4.321a1.92,1.92,0,0,0,.023-.293,1.389,1.389,0,0,0-.508-1.151,1.969,1.969,0,0,0-1.252-.372" data-name="Path 10523" transform="translate(-424.154 -82.661)"/><path id="Path_10524" fill="#3d3d3d" d="M628.149,118.867l-.474,2.234h-.745l1.173-5.517h.745l-.158.756a3.7,3.7,0,0,1,2.583-.88l-.135.677q-2.4,0-2.99,2.73" data-name="Path 10524" transform="translate(-448.835 -82.661)"/><path id="Path_10525" fill="#3d3d3d" d="M137.832,27.286a.564.564,0,0,0-.377.133.724.724,0,0,0-.22.306.124.124,0,0,1-.016.047.47.47,0,0,0-.032.11q-.016.079-.047.228t-.086.369q-.055.22-.134.549t-.188.769a.642.642,0,0,0,.126.518.55.55,0,0,0,.455.22h7.642a4.051,4.051,0,0,1,3.381,1.639,4.319,4.319,0,0,1,.777,3.774.22.22,0,0,1-.008.047c-.005.021-.013.055-.024.1s-.026.115-.047.2-.05.2-.087.337-.078.306-.125.51-.1.442-.173.714l-.236.941q-.133.533-.29,1.208a4.645,4.645,0,0,1-1.632,2.51,4.432,4.432,0,0,1-2.84.973H128.292a.32.32,0,0,1,.008-.055c.005-.026.016-.068.031-.125s.037-.139.063-.243l.1-.408q.063-.251.141-.612t.2-.855q.118-.494.274-1.137t.345-1.443h13.51a.62.62,0,0,0,.612-.455.206.206,0,0,1,.008-.047c.005-.021.013-.057.024-.11s.029-.128.055-.228.057-.222.094-.369.081-.33.133-.549.11-.476.173-.769a.508.508,0,0,0-.055-.51.525.525,0,0,0-.447-.228h-7.7a4.1,4.1,0,0,1-3.389-1.608,4.3,4.3,0,0,1-.785-3.789.22.22,0,0,1,.008-.047c.005-.021.016-.058.032-.11s.034-.123.055-.212.047-.2.078-.337.073-.3.126-.5.11-.437.172-.714.139-.593.228-.949.191-.758.306-1.208q1.333-3.4,4.456-3.4h15.44a.34.34,0,0,1-.008.055c-.005.026-.016.068-.032.126s-.037.139-.063.243-.063.238-.11.4-.1.361-.157.6-.128.515-.212.839l-.29,1.122q-.165.636-.369,1.436h-13.51Z" data-name="Path 10525" transform="translate(-91.847 -16.086)"/><path id="Path_10526" fill="#3d3d3d" d="M209.242,22.469H214.4a.068.068,0,0,1-.008.032c-.005.011-.013.029-.023.055a.773.773,0,0,0-.032.1l-.039.157c-.016.062-.037.139-.063.227s-.052.191-.078.306-.058.243-.094.384-.078.3-.125.486-.1.384-.157.6-.118.46-.18.722-.133.547-.212.855-.165.641-.259,1h3.7l-1.02,4.66h-3.75a.066.066,0,0,1-.008.031.265.265,0,0,0-.016.063q-.008.047-.023.118t-.039.181c-.016.073-.034.159-.055.259s-.05.217-.086.353-.076.29-.118.463-.089.369-.141.588-.11.463-.173.73-.133.562-.212.887-.165.675-.259,1.051-.2.79-.314,1.24a.975.975,0,0,0,.188.722.792.792,0,0,0,.675.314h2.683l-1.035,4.441H209.6a3.96,3.96,0,0,1-3.35-1.648,4.554,4.554,0,0,1-.777-3.828Z" data-name="Path 10526" transform="translate(-147.017 -16.086)"/><path id="Path_10527" fill="#3d3d3d" d="M248.544,43.045a10.866,10.866,0,0,1,7.391-3.177h3.829a3.943,3.943,0,0,1,3.225,1.475,3.709,3.709,0,0,1,.745,3.374q-.126.47-.22.816t-.157.581q-.063.235-.11.392a2.333,2.333,0,0,0-.063.243.494.494,0,0,1-.032.117.122.122,0,0,0-.016.047,4.189,4.189,0,0,1-1.577,2.408,4.484,4.484,0,0,1-2.769.9h-4.739a1.478,1.478,0,0,1-1.287-1.091,2.273,2.273,0,0,1,.306-1.867,2.917,2.917,0,0,1,2.11-1.232h3q.094-.376.165-.651c.047-.183.089-.337.126-.463s.065-.23.086-.314.036-.149.047-.2.018-.078.024-.094a.124.124,0,0,0,.008-.039H255.4a4.817,4.817,0,0,0-2.9.886,4.907,4.907,0,0,0-1.742,2.848,3.651,3.651,0,0,0,.439,2.573,2.881,2.881,0,0,0,2.714,1.177h8.018q-.173.706-.322,1.255t-.267.965q-.118.416-.2.73t-.141.526q-.063.212-.094.345c-.021.089-.039.159-.055.212s-.026.089-.031.11a.207.207,0,0,0-.008.047h-9.163q-3.264,0-4.692-1.562a5.454,5.454,0,0,1-1.459-3.726,10.22,10.22,0,0,1,3.044-7.618" data-name="Path 10527" transform="translate(-175.759 -28.542)"/><path id="Path_10528" fill="#3d3d3d" d="M317.281,55.906q-3.954-.423-5.225-3.428t.659-7.445q3.3-5.492,10.23-5.115h7.327l-.236.832h.016l-1.287,5.084-2.573,10.136h-5.131Zm6.37-10.073h-.016l.424-1.695H321.6a4.942,4.942,0,0,0-3.2,1.059,5.137,5.137,0,0,0-1.663,2.456q-.832,3.781,2.62,3.734h2.856Z" data-name="Path 10528" transform="translate(-223.047 -28.56)"/><path id="Path_10529" fill="#3d3d3d" d="M391.113,37.8h-5.052l1.428-6.01h-3.17q-3.373-.032-4.456,3.719a3.509,3.509,0,0,0,.416,2.589,2.9,2.9,0,0,0,2.613,1.193h7.877l-1.1,4.205h-8.96a6.018,6.018,0,0,1-4.543-1.6,5.8,5.8,0,0,1-1.53-3.734,11.013,11.013,0,0,1,3.052-7.649,10.37,10.37,0,0,1,7.194-3.193h3.75l1.287-4.849h5.052Z" data-name="Path 10529" transform="translate(-268.212 -16.085)"/><path id="Path_10530" fill="#349574" d="M438.742,25.952q1.208-3.483,4.456-3.483H457.65l-1.1,4.8h-8.411v.016h-4.064a.576.576,0,0,0-.353.141.774.774,0,0,0-.259.376l-.628,2.777h8.473l-1.035,4.8h-8.52l-1.82,8.112h-5.147Z" data-name="Path 10530" transform="translate(-311.275 -16.086)"/><path id="Path_10531" fill="#349574" d="M501.184,55.906q-3.954-.423-5.225-3.428t.659-7.445q3.3-5.492,10.23-5.115h7.328l-.235.832h.016l-1.287,5.084L510.1,55.969h-5.131Zm6.371-10.073h-.016l.424-1.695H505.5a4.942,4.942,0,0,0-3.2,1.059,5.142,5.142,0,0,0-1.663,2.456q-.832,3.781,2.62,3.734h2.856Z" data-name="Path 10531" transform="translate(-354.707 -28.56)"/><path id="Path_10532" fill="#349574" d="M574.531,27.426l1.2-4.958h5.162a.066.066,0,0,1-.008.032c-.005.011-.013.029-.023.055a.774.774,0,0,0-.032.1l-.039.157c-.016.062-.037.139-.063.227s-.053.191-.079.306-.057.243-.094.384-.079.3-.126.487-.1.384-.157.6-.118.46-.18.722-.133.547-.212.855-.164.641-.259,1h3.7l-1.02,4.66h-3.75a.076.076,0,0,1-.008.032.245.245,0,0,0-.016.063c-.005.031-.013.07-.024.117l-.039.181-.055.259q-.032.15-.086.353t-.118.463q-.062.259-.141.588t-.172.73q-.094.4-.212.887t-.259,1.051q-.142.565-.314,1.239a.973.973,0,0,0,.188.722.792.792,0,0,0,.675.314h2.683l-1.036,4.441h-3.531a3.96,3.96,0,0,1-3.35-1.647,4.553,4.553,0,0,1-.777-3.829l1.55-6.4H563.462q-.973-.047-1.114.706a.657.657,0,0,0,.416.769,3.177,3.177,0,0,0,1.31.141l2.087-.063q2.934.095,3.883,1.656a5.983,5.983,0,0,1,.51,4.166q-.973,4.676-6.449,4.5h-9.32l.894-4.362h8.269q1.318.11,1.585-.816.031-1.02-1.522-.926h-2.322a4.7,4.7,0,0,1-3.7-1.553,4.8,4.8,0,0,1-.792-4.158q1.4-4.582,7.045-4.252h10.285Z" data-name="Path 10532" transform="translate(-397.184 -16.085)"/></g></g><g id="Group_4445" data-name="Group 4445" transform="translate(36.444 34.91)"><g id="Group_4444" clip-path="url(#clip-path-2)" data-name="Group 4444"><path id="Path_10533" fill="#349574" d="M128.292,122.892v0Z" data-name="Path 10533" transform="translate(-128.292 -122.892)"/><rect id="Rectangle_1881" width=".44" height="1.133" fill="#349574" data-name="Rectangle 1881" transform="translate(0 0)"/><rect id="Rectangle_1882" width=".44" height="1.133" fill="#349574" data-name="Rectangle 1882" transform="translate(0.44 0)"/><rect id="Rectangle_1883" width=".44" height="1.133" fill="#359574" data-name="Rectangle 1883" transform="translate(0.881 0)"/><rect id="Rectangle_1884" width=".44" height="1.133" fill="#359574" data-name="Rectangle 1884" transform="translate(1.321 0)"/><rect id="Rectangle_1885" width=".44" height="1.133" fill="#359574" data-name="Rectangle 1885" transform="translate(1.761 0)"/><rect id="Rectangle_1886" width=".44" height="1.133" fill="#369574" data-name="Rectangle 1886" transform="translate(2.201 0)"/><rect id="Rectangle_1887" width=".44" height="1.133" fill="#369574" data-name="Rectangle 1887" transform="translate(2.641 0)"/><rect id="Rectangle_1888" width=".44" height="1.133" fill="#379675" data-name="Rectangle 1888" transform="translate(3.082 0)"/><rect id="Rectangle_1889" width=".44" height="1.133" fill="#379675" data-name="Rectangle 1889" transform="translate(3.522 0)"/><rect id="Rectangle_1890" width=".44" height="1.133" fill="#389675" data-name="Rectangle 1890" transform="translate(3.962 0)"/><rect id="Rectangle_1891" width=".44" height="1.133" fill="#389675" data-name="Rectangle 1891" transform="translate(4.402 0)"/><rect id="Rectangle_1892" width=".44" height="1.133" fill="#399675" data-name="Rectangle 1892" transform="translate(4.842 0)"/><rect id="Rectangle_1893" width=".44" height="1.133" fill="#399676" data-name="Rectangle 1893" transform="translate(5.283 0)"/><rect id="Rectangle_1894" width=".44" height="1.133" fill="#3a9776" data-name="Rectangle 1894" transform="translate(5.723 0)"/><rect id="Rectangle_1895" width=".44" height="1.133" fill="#3b9776" data-name="Rectangle 1895" transform="translate(6.163 0)"/><rect id="Rectangle_1896" width=".44" height="1.133" fill="#3b9776" data-name="Rectangle 1896" transform="translate(6.603 0)"/><rect id="Rectangle_1897" width=".44" height="1.133" fill="#3c9777" data-name="Rectangle 1897" transform="translate(7.043 0)"/><rect id="Rectangle_1898" width=".44" height="1.133" fill="#3c9777" data-name="Rectangle 1898" transform="translate(7.483 0)"/><rect id="Rectangle_1899" width=".44" height="1.133" fill="#3d9777" data-name="Rectangle 1899" transform="translate(7.924 0)"/><rect id="Rectangle_1900" width=".44" height="1.133" fill="#3e9878" data-name="Rectangle 1900" transform="translate(8.364 0)"/><rect id="Rectangle_1901" width=".44" height="1.133" fill="#3e9878" data-name="Rectangle 1901" transform="translate(8.804 0)"/><rect id="Rectangle_1902" width=".44" height="1.133" fill="#3f9878" data-name="Rectangle 1902" transform="translate(9.244 0)"/><rect id="Rectangle_1903" width=".44" height="1.133" fill="#409879" data-name="Rectangle 1903" transform="translate(9.684 0)"/><rect id="Rectangle_1904" width=".44" height="1.133" fill="#419979" data-name="Rectangle 1904" transform="translate(10.125 0)"/><rect id="Rectangle_1905" width=".44" height="1.133" fill="#419979" data-name="Rectangle 1905" transform="translate(10.565 0)"/><rect id="Rectangle_1906" width=".44" height="1.133" fill="#429979" data-name="Rectangle 1906" transform="translate(11.005 0)"/><rect id="Rectangle_1907" width=".44" height="1.133" fill="#43997a" data-name="Rectangle 1907" transform="translate(11.445 0)"/><rect id="Rectangle_1908" width=".44" height="1.133" fill="#439a7a" data-name="Rectangle 1908" transform="translate(11.885 0)"/><rect id="Rectangle_1909" width=".44" height="1.133" fill="#449a7a" data-name="Rectangle 1909" transform="translate(12.326 0)"/><rect id="Rectangle_1910" width=".44" height="1.133" fill="#449a7b" data-name="Rectangle 1910" transform="translate(12.766 0)"/><rect id="Rectangle_1911" width=".44" height="1.133" fill="#459a7b" data-name="Rectangle 1911" transform="translate(13.206 0)"/><rect id="Rectangle_1912" width=".44" height="1.133" fill="#469a7b" data-name="Rectangle 1912" transform="translate(13.646 0)"/><rect id="Rectangle_1913" width=".44" height="1.133" fill="#479b7c" data-name="Rectangle 1913" transform="translate(14.086 0)"/><rect id="Rectangle_1914" width=".44" height="1.133" fill="#489b7c" data-name="Rectangle 1914" transform="translate(14.527 0)"/><rect id="Rectangle_1915" width=".44" height="1.133" fill="#489b7c" data-name="Rectangle 1915" transform="translate(14.967 0)"/><rect id="Rectangle_1916" width=".44" height="1.133" fill="#499c7d" data-name="Rectangle 1916" transform="translate(15.407 0)"/><rect id="Rectangle_1917" width=".44" height="1.133" fill="#4a9c7d" data-name="Rectangle 1917" transform="translate(15.847 0)"/><rect id="Rectangle_1918" width=".44" height="1.133" fill="#4a9c7e" data-name="Rectangle 1918" transform="translate(16.287 0)"/><rect id="Rectangle_1919" width=".44" height="1.133" fill="#4b9d7e" data-name="Rectangle 1919" transform="translate(16.728 0)"/><rect id="Rectangle_1920" width=".44" height="1.133" fill="#4c9d7f" data-name="Rectangle 1920" transform="translate(17.167 0)"/><rect id="Rectangle_1921" width=".44" height="1.133" fill="#4d9d7f" data-name="Rectangle 1921" transform="translate(17.608 0)"/><rect id="Rectangle_1922" width=".44" height="1.133" fill="#4d9e80" data-name="Rectangle 1922" transform="translate(18.048 0)"/><rect id="Rectangle_1923" width=".44" height="1.133" fill="#4e9e80" data-name="Rectangle 1923" transform="translate(18.488 0)"/><rect id="Rectangle_1924" width=".44" height="1.133" fill="#4f9e80" data-name="Rectangle 1924" transform="translate(18.928 0)"/><rect id="Rectangle_1925" width=".44" height="1.133" fill="#509f81" data-name="Rectangle 1925" transform="translate(19.368 0)"/><rect id="Rectangle_1926" width=".44" height="1.133" fill="#519f81" data-name="Rectangle 1926" transform="translate(19.809 0)"/><rect id="Rectangle_1927" width=".44" height="1.133" fill="#519f82" data-name="Rectangle 1927" transform="translate(20.249 0)"/><rect id="Rectangle_1928" width=".44" height="1.133" fill="#52a082" data-name="Rectangle 1928" transform="translate(20.689 0)"/><rect id="Rectangle_1929" width=".44" height="1.133" fill="#53a083" data-name="Rectangle 1929" transform="translate(21.129 0)"/><rect id="Rectangle_1930" width=".44" height="1.133" fill="#54a083" data-name="Rectangle 1930" transform="translate(21.569 0)"/><rect id="Rectangle_1931" width=".44" height="1.133" fill="#55a183" data-name="Rectangle 1931" transform="translate(22.01 0)"/><rect id="Rectangle_1932" width=".44" height="1.133" fill="#55a184" data-name="Rectangle 1932" transform="translate(22.45 0)"/><rect id="Rectangle_1933" width=".44" height="1.133" fill="#56a184" data-name="Rectangle 1933" transform="translate(22.89 0)"/><rect id="Rectangle_1934" width=".44" height="1.133" fill="#57a285" data-name="Rectangle 1934" transform="translate(23.33 0)"/><rect id="Rectangle_1935" width=".44" height="1.133" fill="#58a285" data-name="Rectangle 1935" transform="translate(23.77 0)"/><rect id="Rectangle_1936" width=".44" height="1.133" fill="#59a286" data-name="Rectangle 1936" transform="translate(24.211 0)"/><rect id="Rectangle_1937" width=".44" height="1.133" fill="#59a386" data-name="Rectangle 1937" transform="translate(24.651 0)"/><rect id="Rectangle_1938" width=".44" height="1.133" fill="#5aa387" data-name="Rectangle 1938" transform="translate(25.091 0)"/><rect id="Rectangle_1939" width=".44" height="1.133" fill="#5ba387" data-name="Rectangle 1939" transform="translate(25.531 0)"/><rect id="Rectangle_1940" width=".44" height="1.133" fill="#5ca488" data-name="Rectangle 1940" transform="translate(25.971 0)"/><rect id="Rectangle_1941" width=".44" height="1.133" fill="#5da488" data-name="Rectangle 1941" transform="translate(26.412 0)"/><rect id="Rectangle_1942" width=".44" height="1.133" fill="#5ea489" data-name="Rectangle 1942" transform="translate(26.852 0)"/><rect id="Rectangle_1943" width=".44" height="1.133" fill="#5fa589" data-name="Rectangle 1943" transform="translate(27.292 0)"/><rect id="Rectangle_1944" width=".44" height="1.133" fill="#60a58a" data-name="Rectangle 1944" transform="translate(27.732 0)"/><rect id="Rectangle_1945" width=".44" height="1.133" fill="#61a68a" data-name="Rectangle 1945" transform="translate(28.172 0)"/><rect id="Rectangle_1946" width=".44" height="1.133" fill="#61a68b" data-name="Rectangle 1946" transform="translate(28.612 0)"/><rect id="Rectangle_1947" width=".44" height="1.133" fill="#62a68b" data-name="Rectangle 1947" transform="translate(29.053 0)"/><rect id="Rectangle_1948" width=".44" height="1.133" fill="#63a78c" data-name="Rectangle 1948" transform="translate(29.493 0)"/><rect id="Rectangle_1949" width=".44" height="1.133" fill="#64a78c" data-name="Rectangle 1949" transform="translate(29.933 0)"/><rect id="Rectangle_1950" width=".44" height="1.133" fill="#65a88d" data-name="Rectangle 1950" transform="translate(30.373 0)"/><rect id="Rectangle_1951" width=".44" height="1.133" fill="#66a88d" data-name="Rectangle 1951" transform="translate(30.813 0)"/><rect id="Rectangle_1952" width=".44" height="1.133" fill="#66a88e" data-name="Rectangle 1952" transform="translate(31.254 0)"/><rect id="Rectangle_1953" width=".44" height="1.133" fill="#67a98f" data-name="Rectangle 1953" transform="translate(31.694 0)"/><rect id="Rectangle_1954" width=".44" height="1.133" fill="#68a98f" data-name="Rectangle 1954" transform="translate(32.134 0)"/><rect id="Rectangle_1955" width=".44" height="1.133" fill="#69aa90" data-name="Rectangle 1955" transform="translate(32.574 0)"/><rect id="Rectangle_1956" width=".44" height="1.133" fill="#6aaa90" data-name="Rectangle 1956" transform="translate(33.015 0)"/><rect id="Rectangle_1957" width=".44" height="1.133" fill="#6baa91" data-name="Rectangle 1957" transform="translate(33.454 0)"/><rect id="Rectangle_1958" width=".44" height="1.133" fill="#6cab92" data-name="Rectangle 1958" transform="translate(33.895 0)"/><rect id="Rectangle_1959" width=".44" height="1.133" fill="#6dab92" data-name="Rectangle 1959" transform="translate(34.335 0)"/><rect id="Rectangle_1960" width=".44" height="1.133" fill="#6eac93" data-name="Rectangle 1960" transform="translate(34.775 0)"/><rect id="Rectangle_1961" width=".44" height="1.133" fill="#6eac93" data-name="Rectangle 1961" transform="translate(35.215 0)"/><rect id="Rectangle_1962" width=".44" height="1.133" fill="#6fad94" data-name="Rectangle 1962" transform="translate(35.656 0)"/><rect id="Rectangle_1963" width=".44" height="1.133" fill="#70ad95" data-name="Rectangle 1963" transform="translate(36.096 0)"/><rect id="Rectangle_1964" width=".44" height="1.133" fill="#71ae95" data-name="Rectangle 1964" transform="translate(36.536 0)"/><rect id="Rectangle_1965" width=".44" height="1.133" fill="#72ae96" data-name="Rectangle 1965" transform="translate(36.976 0)"/><rect id="Rectangle_1966" width=".44" height="1.133" fill="#73ae96" data-name="Rectangle 1966" transform="translate(37.416 0)"/><rect id="Rectangle_1967" width=".44" height="1.133" fill="#74af97" data-name="Rectangle 1967" transform="translate(37.857 0)"/><rect id="Rectangle_1968" width=".44" height="1.133" fill="#75af98" data-name="Rectangle 1968" transform="translate(38.296 0)"/><rect id="Rectangle_1969" width=".44" height="1.133" fill="#76b098" data-name="Rectangle 1969" transform="translate(38.737 0)"/><rect id="Rectangle_1970" width=".44" height="1.133" fill="#77b099" data-name="Rectangle 1970" transform="translate(39.177 0)"/><rect id="Rectangle_1971" width=".44" height="1.133" fill="#78b19a" data-name="Rectangle 1971" transform="translate(39.617 0)"/><rect id="Rectangle_1972" width=".44" height="1.133" fill="#79b19a" data-name="Rectangle 1972" transform="translate(40.057 0)"/><rect id="Rectangle_1973" width=".44" height="1.133" fill="#7ab29b" data-name="Rectangle 1973" transform="translate(40.497 0)"/><rect id="Rectangle_1974" width=".44" height="1.133" fill="#7bb39c" data-name="Rectangle 1974" transform="translate(40.938 0)"/><rect id="Rectangle_1975" width=".44" height="1.133" fill="#7cb39c" data-name="Rectangle 1975" transform="translate(41.378 0)"/><rect id="Rectangle_1976" width=".44" height="1.133" fill="#7db39d" data-name="Rectangle 1976" transform="translate(41.818 0)"/><rect id="Rectangle_1977" width=".44" height="1.133" fill="#7eb49e" data-name="Rectangle 1977" transform="translate(42.258 0)"/><rect id="Rectangle_1978" width=".44" height="1.133" fill="#7fb59f" data-name="Rectangle 1978" transform="translate(42.698 0)"/><rect id="Rectangle_1979" width=".44" height="1.133" fill="#80b59f" data-name="Rectangle 1979" transform="translate(43.139 0)"/><rect id="Rectangle_1980" width=".44" height="1.133" fill="#81b5a0" data-name="Rectangle 1980" transform="translate(43.579 0)"/><rect id="Rectangle_1981" width=".44" height="1.133" fill="#82b6a1" data-name="Rectangle 1981" transform="translate(44.019 0)"/><rect id="Rectangle_1982" width=".44" height="1.133" fill="#83b7a1" data-name="Rectangle 1982" transform="translate(44.459 0)"/><rect id="Rectangle_1983" width=".44" height="1.133" fill="#84b7a2" data-name="Rectangle 1983" transform="translate(44.899 0)"/><rect id="Rectangle_1984" width=".44" height="1.133" fill="#85b8a3" data-name="Rectangle 1984" transform="translate(45.34 0)"/><rect id="Rectangle_1985" width=".44" height="1.133" fill="#86b8a4" data-name="Rectangle 1985" transform="translate(45.78 0)"/><rect id="Rectangle_1986" width=".44" height="1.133" fill="#87b9a4" data-name="Rectangle 1986" transform="translate(46.22 0)"/><rect id="Rectangle_1987" width=".44" height="1.133" fill="#88b9a5" data-name="Rectangle 1987" transform="translate(46.66 0)"/><rect id="Rectangle_1988" width=".44" height="1.133" fill="#89baa6" data-name="Rectangle 1988" transform="translate(47.1 0)"/><rect id="Rectangle_1989" width=".44" height="1.133" fill="#8abaa6" data-name="Rectangle 1989" transform="translate(47.54 0)"/><rect id="Rectangle_1990" width=".44" height="1.133" fill="#8bbba7" data-name="Rectangle 1990" transform="translate(47.981 0)"/><rect id="Rectangle_1991" width=".44" height="1.133" fill="#8dbba8" data-name="Rectangle 1991" transform="translate(48.421 0)"/><rect id="Rectangle_1992" width=".44" height="1.133" fill="#8ebca9" data-name="Rectangle 1992" transform="translate(48.861 0)"/><rect id="Rectangle_1993" width=".44" height="1.133" fill="#8ebdaa" data-name="Rectangle 1993" transform="translate(49.301 0)"/><rect id="Rectangle_1994" width=".44" height="1.133" fill="#90bdaa" data-name="Rectangle 1994" transform="translate(49.741 0)"/><rect id="Rectangle_1995" width=".44" height="1.133" fill="#91beab" data-name="Rectangle 1995" transform="translate(50.182 0)"/><rect id="Rectangle_1996" width=".44" height="1.133" fill="#92beac" data-name="Rectangle 1996" transform="translate(50.622 0)"/><rect id="Rectangle_1997" width=".44" height="1.133" fill="#93bfad" data-name="Rectangle 1997" transform="translate(51.062 0)"/><rect id="Rectangle_1998" width=".44" height="1.133" fill="#94c0ad" data-name="Rectangle 1998" transform="translate(51.502 0)"/><rect id="Rectangle_1999" width=".44" height="1.133" fill="#95c0ae" data-name="Rectangle 1999" transform="translate(51.943 0)"/><rect id="Rectangle_2000" width=".44" height="1.133" fill="#96c1af" data-name="Rectangle 2000" transform="translate(52.383 0)"/><rect id="Rectangle_2001" width=".44" height="1.133" fill="#97c1b0" data-name="Rectangle 2001" transform="translate(52.823 0)"/><rect id="Rectangle_2002" width=".44" height="1.133" fill="#99c2b1" data-name="Rectangle 2002" transform="translate(53.263 0)"/><rect id="Rectangle_2003" width=".44" height="1.133" fill="#9ac3b1" data-name="Rectangle 2003" transform="translate(53.703 0)"/><rect id="Rectangle_2004" width=".44" height="1.133" fill="#9bc3b2" data-name="Rectangle 2004" transform="translate(54.144 0)"/><rect id="Rectangle_2005" width=".44" height="1.133" fill="#9cc4b3" data-name="Rectangle 2005" transform="translate(54.584 0)"/><rect id="Rectangle_2006" width=".44" height="1.133" fill="#9dc4b4" data-name="Rectangle 2006" transform="translate(55.024 0)"/><rect id="Rectangle_2007" width=".44" height="1.133" fill="#9fc5b5" data-name="Rectangle 2007" transform="translate(55.464 0)"/><rect id="Rectangle_2008" width=".44" height="1.133" fill="#a0c6b5" data-name="Rectangle 2008" transform="translate(55.904 0)"/><rect id="Rectangle_2009" width=".44" height="1.133" fill="#a1c6b6" data-name="Rectangle 2009" transform="translate(56.344 0)"/><rect id="Rectangle_2010" width=".44" height="1.133" fill="#a2c7b7" data-name="Rectangle 2010" transform="translate(56.785 0)"/><rect id="Rectangle_2011" width=".44" height="1.133" fill="#a3c8b8" data-name="Rectangle 2011" transform="translate(57.224 0)"/><rect id="Rectangle_2012" width=".44" height="1.133" fill="#a4c8b9" data-name="Rectangle 2012" transform="translate(57.665 0)"/><rect id="Rectangle_2013" width=".44" height="1.133" fill="#a6c9ba" data-name="Rectangle 2013" transform="translate(58.105 0)"/><rect id="Rectangle_2014" width=".44" height="1.133" fill="#a7cabb" data-name="Rectangle 2014" transform="translate(58.545 0)"/><rect id="Rectangle_2015" width=".44" height="1.133" fill="#a8cabb" data-name="Rectangle 2015" transform="translate(58.985 0)"/><rect id="Rectangle_2016" width=".44" height="1.133" fill="#aacbbd" data-name="Rectangle 2016" transform="translate(59.425 0)"/><rect id="Rectangle_2017" width=".44" height="1.133" fill="#abccbe" data-name="Rectangle 2017" transform="translate(59.866 0)"/><rect id="Rectangle_2018" width=".44" height="1.133" fill="#accdbe" data-name="Rectangle 2018" transform="translate(60.306 0)"/><rect id="Rectangle_2019" width=".44" height="1.133" fill="#adcdbf" data-name="Rectangle 2019" transform="translate(60.746 0)"/><rect id="Rectangle_2020" width=".44" height="1.133" fill="#aecec0" data-name="Rectangle 2020" transform="translate(61.186 0)"/><rect id="Rectangle_2021" width=".44" height="1.133" fill="#b0cfc1" data-name="Rectangle 2021" transform="translate(61.626 0)"/><rect id="Rectangle_2022" width=".44" height="1.133" fill="#b1cfc2" data-name="Rectangle 2022" transform="translate(62.067 0)"/><rect id="Rectangle_2023" width=".44" height="1.133" fill="#b2d0c3" data-name="Rectangle 2023" transform="translate(62.507 0)"/><rect id="Rectangle_2024" width=".44" height="1.133" fill="#b4d1c4" data-name="Rectangle 2024" transform="translate(62.947 0)"/><rect id="Rectangle_2025" width=".44" height="1.133" fill="#b5d1c5" data-name="Rectangle 2025" transform="translate(63.387 0)"/><rect id="Rectangle_2026" width=".44" height="1.133" fill="#b6d2c6" data-name="Rectangle 2026" transform="translate(63.827 0)"/><rect id="Rectangle_2027" width=".44" height="1.133" fill="#b8d3c7" data-name="Rectangle 2027" transform="translate(64.268 0)"/><rect id="Rectangle_2028" width=".44" height="1.133" fill="#b9d4c7" data-name="Rectangle 2028" transform="translate(64.708 0)"/><rect id="Rectangle_2029" width=".44" height="1.133" fill="#bad4c8" data-name="Rectangle 2029" transform="translate(65.148 0)"/><rect id="Rectangle_2030" width=".44" height="1.133" fill="#bcd5c9" data-name="Rectangle 2030" transform="translate(65.588 0)"/><rect id="Rectangle_2031" width=".44" height="1.133" fill="#bdd6ca" data-name="Rectangle 2031" transform="translate(66.028 0)"/><rect id="Rectangle_2032" width=".44" height="1.133" fill="#bed7cb" data-name="Rectangle 2032" transform="translate(66.469 0)"/><rect id="Rectangle_2033" width=".44" height="1.133" fill="#bfd7cc" data-name="Rectangle 2033" transform="translate(66.909 0)"/><rect id="Rectangle_2034" width=".44" height="1.133" fill="#c1d8cd" data-name="Rectangle 2034" transform="translate(67.349 0)"/><rect id="Rectangle_2035" width=".44" height="1.133" fill="#c2d9ce" data-name="Rectangle 2035" transform="translate(67.789 0)"/><rect id="Rectangle_2036" width=".44" height="1.133" fill="#c3dacf" data-name="Rectangle 2036" transform="translate(68.229 0)"/><rect id="Rectangle_2037" width=".44" height="1.133" fill="#c5dad0" data-name="Rectangle 2037" transform="translate(68.67 0)"/><rect id="Rectangle_2038" width=".44" height="1.133" fill="#c6dbd1" data-name="Rectangle 2038" transform="translate(69.11 0)"/><rect id="Rectangle_2039" width=".44" height="1.133" fill="#c7dcd2" data-name="Rectangle 2039" transform="translate(69.55 0)"/><rect id="Rectangle_2040" width=".44" height="1.133" fill="#c9ddd3" data-name="Rectangle 2040" transform="translate(69.99 0)"/><rect id="Rectangle_2041" width=".44" height="1.133" fill="#caded4" data-name="Rectangle 2041" transform="translate(70.43 0)"/><rect id="Rectangle_2042" width=".44" height="1.133" fill="#cbded5" data-name="Rectangle 2042" transform="translate(70.87 0)"/><rect id="Rectangle_2043" width=".44" height="1.133" fill="#cddfd6" data-name="Rectangle 2043" transform="translate(71.311 0)"/><rect id="Rectangle_2044" width=".44" height="1.133" fill="#cee0d7" data-name="Rectangle 2044" transform="translate(71.751 0)"/><rect id="Rectangle_2045" width=".44" height="1.133" fill="#d0e1d8" data-name="Rectangle 2045" transform="translate(72.191 0)"/><rect id="Rectangle_2046" width=".44" height="1.133" fill="#d1e2d9" data-name="Rectangle 2046" transform="translate(72.631 0)"/><rect id="Rectangle_2047" width=".44" height="1.133" fill="#d2e2da" data-name="Rectangle 2047" transform="translate(73.072 0)"/><rect id="Rectangle_2048" width=".44" height="1.133" fill="#d4e3dc" data-name="Rectangle 2048" transform="translate(73.512 0)"/><rect id="Rectangle_2049" width=".44" height="1.133" fill="#d6e4dd" data-name="Rectangle 2049" transform="translate(73.952 0)"/><rect id="Rectangle_2050" width=".44" height="1.133" fill="#d7e5de" data-name="Rectangle 2050" transform="translate(74.392 0)"/><rect id="Rectangle_2051" width=".44" height="1.133" fill="#d8e6df" data-name="Rectangle 2051" transform="translate(74.832 0)"/><rect id="Rectangle_2052" width=".44" height="1.133" fill="#dae7e0" data-name="Rectangle 2052" transform="translate(75.272 0)"/><rect id="Rectangle_2053" width=".44" height="1.133" fill="#dbe8e1" data-name="Rectangle 2053" transform="translate(75.713 0)"/><rect id="Rectangle_2054" width=".44" height="1.133" fill="#dde9e2" data-name="Rectangle 2054" transform="translate(76.153 0)"/><rect id="Rectangle_2055" width=".44" height="1.133" fill="#dfeae4" data-name="Rectangle 2055" transform="translate(76.593 0)"/><rect id="Rectangle_2056" width=".44" height="1.133" fill="#e1ebe5" data-name="Rectangle 2056" transform="translate(77.033 0)"/><rect id="Rectangle_2057" width=".44" height="1.133" fill="#e2ece6" data-name="Rectangle 2057" transform="translate(77.473 0)"/><rect id="Rectangle_2058" width=".44" height="1.133" fill="#e3ede7" data-name="Rectangle 2058" transform="translate(77.914 0)"/><rect id="Rectangle_2059" width=".44" height="1.133" fill="#e5eee9" data-name="Rectangle 2059" transform="translate(78.353 0)"/><rect id="Rectangle_2060" width=".44" height="1.133" fill="#e6efea" data-name="Rectangle 2060" transform="translate(78.794 0)"/><rect id="Rectangle_2061" width=".44" height="1.133" fill="#e8f0eb" data-name="Rectangle 2061" transform="translate(79.234 0)"/><rect id="Rectangle_2062" width=".44" height="1.133" fill="#eaf1ec" data-name="Rectangle 2062" transform="translate(79.674 0)"/><rect id="Rectangle_2063" width=".44" height="1.133" fill="#ebf2ee" data-name="Rectangle 2063" transform="translate(80.114 0)"/><rect id="Rectangle_2064" width=".44" height="1.133" fill="#edf3ef" data-name="Rectangle 2064" transform="translate(80.554 0)"/><rect id="Rectangle_2065" width=".44" height="1.133" fill="#eff4f0" data-name="Rectangle 2065" transform="translate(80.995 0)"/><rect id="Rectangle_2066" width=".44" height="1.133" fill="#f0f5f2" data-name="Rectangle 2066" transform="translate(81.435 0)"/><rect id="Rectangle_2067" width=".44" height="1.133" fill="#f2f6f3" data-name="Rectangle 2067" transform="translate(81.875 0)"/><rect id="Rectangle_2068" width=".44" height="1.133" fill="#f3f7f5" data-name="Rectangle 2068" transform="translate(82.315 0)"/><rect id="Rectangle_2069" width=".44" height="1.133" fill="#f5f9f6" data-name="Rectangle 2069" transform="translate(82.755 0)"/><rect id="Rectangle_2070" width=".44" height="1.133" fill="#f7faf8" data-name="Rectangle 2070" transform="translate(83.196 0)"/><rect id="Rectangle_2071" width=".44" height="1.133" fill="#f9fbfa" data-name="Rectangle 2071" transform="translate(83.636 0)"/><rect id="Rectangle_2072" width=".44" height="1.133" fill="#fcfdfc" data-name="Rectangle 2072" transform="translate(84.076 0)"/><rect id="Rectangle_2073" width=".44" height="1.133" fill="#fff" data-name="Rectangle 2073" transform="translate(84.516 0)"/><path id="Path_10534" fill="#fff" d="M427.353,124.024v0Z" data-name="Path 10534" transform="translate(-342.397 -122.891)"/></g></g></svg>